<mxfile host="app.diagrams.net" modified="2023-10-23T04:53:09.864Z" agent="Mozilla/5.0 (Macintosh; Intel Mac OS X 10_15_7) AppleWebKit/537.36 (KHTML, like Gecko) Chrome/118.0.0.0 Safari/537.36" version="22.0.6" etag="SostBCmHw4L4H9r6rMuN" type="github">
  <diagram name="페이지-1" id="3CVgDvul-JH_stpOPv7v">
    <mxGraphModel>
      <root>
        <mxCell id="0" />
        <mxCell id="1" parent="0" />
      </root>
    </mxGraphModel>
  </diagram>
</mxfile>
